<svg width="23" height="23" viewBox="0 0 23 23" fill="none" xmlns="http://www.w3.org/2000/svg">
    <g clip-path="url(#clip0)">
        <path d="M14.8411 2.86029L14.6057 3.11589L9.56271 8.20762L9.31116 8.45916C9.21263 8.55926 9.09516 8.63876 8.96561 8.69302C8.83605 8.74728 8.69699 8.77522 8.55653 8.77522C8.41607 8.77522 8.27702 8.74728 8.14746 8.69302C8.01791 8.63876 7.90044 8.55926 7.8019 8.45916L6.79573 7.44488C6.59527 7.24079 6.48296 6.96617 6.48296 6.6801C6.48296 6.39404 6.59527 6.11941 6.79573 5.91533C6.79573 5.91533 9.23002 4.32087 10.0415 3.51755C10.8529 2.71424 12.3297 0.316458 12.3297 0.316458C12.4279 0.216481 12.545 0.13707 12.6742 0.0828609C12.8034 0.0286521 12.9422 0.000732422 13.0823 0.000732422C13.2224 0.000732422 13.3611 0.0286521 13.4904 0.0828609C13.6196 0.13707 13.7367 0.216481 13.8349 0.316458L14.8411 1.33075C15.0415 1.53483 15.1538 1.80946 15.1538 2.09552C15.1538 2.38158 15.0415 2.65621 14.8411 2.86029Z" fill="url(#paint0_linear)"/>
        <path d="M22.927 9.66819C22.7687 10.2118 22.8012 10.0739 22.3833 10.4999C22.3833 10.4999 21.2554 12.7232 20.1519 13.8389C19.0483 14.9547 16.8534 16.0988 16.8534 16.0988C16.4477 16.5045 16.5572 16.683 15.9973 16.6871L14.338 15.0642C14.1368 14.8613 14.0239 14.5872 14.0239 14.3015C14.0239 14.0157 14.1368 13.7416 14.338 13.5387L14.5895 13.2791L19.6163 8.20762L19.88 7.95201C19.9786 7.85192 20.096 7.77242 20.2256 7.71816C20.3552 7.6639 20.4942 7.63596 20.6347 7.63596C20.7751 7.63596 20.9142 7.6639 21.0437 7.71816C21.1733 7.77242 21.2908 7.85192 21.3893 7.95201L22.927 9.66819Z" fill="url(#paint1_linear)"/>
        <path d="M19.6163 8.20762L14.5895 13.2953L9.5627 8.20762L14.5895 3.11589L19.6163 8.20762Z" fill="url(#paint2_linear)"/>
        <path d="M19.6163 8.20762L14.5895 3.11589L13.8024 3.91109L18.8333 9.00282L19.6163 8.20762Z" fill="#FFE600"/>
        <path d="M18.4479 9.38825L13.4211 4.30058L13.0275 4.69818L18.0543 9.78991L18.4479 9.38825Z" fill="#FFE600"/>
        <path d="M20.1824 13.8872C22.0962 11.9478 23.3257 10.0579 22.9286 9.66602C22.5315 9.27412 20.6581 10.5286 18.7443 12.468C16.8304 14.4074 15.6009 16.2973 15.998 16.6892C16.3952 17.0811 18.2686 15.8266 20.1824 13.8872Z" fill="#52352A"/>
        <path d="M9.33145 15.1048C9.31119 15.1318 9.29985 15.1644 9.29899 15.1981C9.29964 15.2218 9.30499 15.2451 9.31475 15.2667C9.3245 15.2883 9.33845 15.3077 9.35579 15.3239C9.65929 15.6281 9.82973 16.0403 9.82973 16.47C9.82973 16.8997 9.65929 17.3119 9.35579 17.6162L4.48721 22.5253C4.33989 22.6756 4.16408 22.795 3.97007 22.8765C3.77605 22.958 3.56773 22.9999 3.35729 22.9999C3.14685 22.9999 2.93853 22.958 2.74451 22.8765C2.5505 22.795 2.37469 22.6756 2.22737 22.5253L0.470625 20.7442C0.167129 20.44 -0.00331116 20.0278 -0.00331116 19.5981C-0.00331116 19.1684 0.167129 18.7562 0.470625 18.4519L5.33921 13.5428C5.48687 13.3924 5.66303 13.2729 5.85738 13.1914C6.05173 13.1098 6.26039 13.0678 6.47116 13.0678C6.68192 13.0678 6.89058 13.1098 7.08493 13.1914C7.27928 13.2729 7.45544 13.3924 7.6031 13.5428C7.63036 13.5729 7.66768 13.592 7.70803 13.5964C7.74839 13.6009 7.78899 13.5905 7.82219 13.5671C7.83533 13.5627 7.8467 13.5542 7.85464 13.5428L8.52002 12.8368L11.3235 9.99683L12.8328 11.5223L10.0252 14.3623L9.33145 15.0723C9.32963 15.0831 9.32963 15.094 9.33145 15.1048Z" fill="url(#paint3_linear)"/>
        <path d="M10.0415 14.3664L9.33145 15.0723C9.32115 15.0813 9.31285 15.0924 9.30711 15.1048L7.78973 13.5671C7.80288 13.5627 7.81425 13.5541 7.82219 13.5428L8.52002 12.8368L10.0415 14.3664Z" fill="url(#paint4_linear)"/>
        <path d="M3.1524 22.9838L9.80614 16.4355C9.80897 16.7622 9.71892 17.083 9.54648 17.3606C9.17322 17.9083 4.49127 22.5253 4.49127 22.5253C4.31845 22.6996 4.10771 22.8317 3.87548 22.9112C3.64326 22.9907 3.3958 23.0156 3.1524 22.9838Z" fill="#684941"/>
        <path d="M5.36761 21.6571L1.46057 17.4498L0.734344 18.1842L4.62515 22.3914L5.36761 21.6571Z" fill="url(#paint5_linear)"/>
        <path d="M5.36761 21.6571L4.95378 21.2108L4.21132 21.9451L4.62515 22.3914L5.36761 21.6571Z" fill="#DD9300"/>
    </g>
    <defs>
        <linearGradient id="paint0_linear" x1="6.48333" y1="4.38984" x2="15.1535" y2="4.38984" gradientUnits="userSpaceOnUse">
            <stop stop-color="#916958"/>
            <stop offset="0.21" stop-color="#8B6454"/>
            <stop offset="0.49" stop-color="#7B5748"/>
            <stop offset="0.8" stop-color="#5F4034"/>
            <stop offset="1" stop-color="#4A2F24"/>
        </linearGradient>
        <linearGradient id="paint1_linear" x1="321.802" y1="278.898" x2="517.135" y2="278.898" gradientUnits="userSpaceOnUse">
            <stop stop-color="#916958"/>
            <stop offset="0.21" stop-color="#8B6454"/>
            <stop offset="0.49" stop-color="#7B5748"/>
            <stop offset="0.8" stop-color="#5F4034"/>
            <stop offset="1" stop-color="#4A2F24"/>
        </linearGradient>
        <linearGradient id="paint2_linear" x1="9.5627" y1="8.20762" x2="19.6163" y2="8.20762" gradientUnits="userSpaceOnUse">
            <stop stop-color="#FFD500"/>
            <stop offset="0.49" stop-color="#FFC700"/>
            <stop offset="1" stop-color="#FFB300"/>
        </linearGradient>
        <linearGradient id="paint3_linear" x1="-0.00331116" y1="538.833" x2="406.515" y2="538.833" gradientUnits="userSpaceOnUse">
            <stop stop-color="#916958"/>
            <stop offset="0.21" stop-color="#8B6454"/>
            <stop offset="0.49" stop-color="#7B5748"/>
            <stop offset="0.8" stop-color="#5F4034"/>
            <stop offset="1" stop-color="#4A2F24"/>
        </linearGradient>
        <linearGradient id="paint4_linear" x1="51.0903" y1="90.945" x2="63.5198" y2="90.945" gradientUnits="userSpaceOnUse">
            <stop stop-color="#FFD500"/>
            <stop offset="0.49" stop-color="#FFC700"/>
            <stop offset="1" stop-color="#FFB300"/>
        </linearGradient>
        <linearGradient id="paint5_linear" x1="9.12056" y1="260.083" x2="62.0325" y2="260.083" gradientUnits="userSpaceOnUse">
            <stop stop-color="#FFD500"/>
            <stop offset="0.49" stop-color="#FFC700"/>
            <stop offset="1" stop-color="#FFB300"/>
        </linearGradient>
        <clipPath id="clip0">
            <rect width="23" height="23" fill="white"/>
        </clipPath>
    </defs>
</svg>
